<svg id="Capa_1" enable-background="new 0 0 512 512" height="512" viewBox="0 0 512 512" width="512" xmlns="http://www.w3.org/2000/svg"><g><path d="m289.926 50.693h-67.853c-4.189 0-7.585 3.396-7.585 7.585s3.396 7.585 7.585 7.585h26.342v38.32c0 4.189 3.396 7.585 7.585 7.585 4.19 0 7.585-3.396 7.585-7.585v-38.32h26.341c4.19 0 7.585-3.396 7.585-7.585s-3.395-7.585-7.585-7.585z" fill="#e4f6ff"/><g><path d="m402.469 89.756c-2.008 0-4.012-.792-5.503-2.363l-58.034-61.149c-6.679-7.038-16.075-11.074-25.777-11.074h-114.309c-9.703 0-19.099 4.036-25.778 11.074l-58.034 61.149c-2.883 3.038-7.685 3.163-10.723.28s-3.164-7.684-.28-10.723l58.034-61.149c9.53-10.042 22.936-15.801 36.781-15.801h114.309c13.844 0 27.25 5.759 36.781 15.801l58.034 61.149c2.883 3.039 2.757 7.84-.28 10.723-1.468 1.393-3.347 2.083-5.221 2.083z" fill="#e4f6ff"/></g><g><path d="m360.015 143.554c-1.604 0-3.22-.507-4.594-1.555-3.33-2.541-3.971-7.3-1.431-10.631l41.4-54.279c2.541-3.33 7.298-3.972 10.632-1.431 3.33 2.541 3.971 7.3 1.431 10.631l-41.4 54.279c-1.494 1.957-3.753 2.986-6.038 2.986z" fill="#2b4d66"/></g><g><path d="m433.684 69.092-28.646-21.849 18.381-24.1c5.945-7.795 17.083-9.294 24.878-3.349l.419.319c7.795 5.945 9.294 17.083 3.349 24.878z" fill="#f4fbff"/></g><path d="m448.716 20.115-.419-.32c-2.357-1.798-5.022-2.904-7.755-3.372 3.029 5.898 2.634 13.254-1.655 18.877l-18.208 23.873 13.005 9.919 18.381-24.1c5.945-7.794 4.446-18.932-3.349-24.877z" fill="#e4f6ff"/><g><path d="m444.493 141.728-50.151-38.251-3.816-6.928-8.247-2.273-50.15-38.25c-2.196-1.675-2.618-4.812-.943-7.008l9.969-13.071c13.397-17.565 38.498-20.944 56.063-7.547l56.705 43.25c17.565 13.397 20.944 38.498 7.547 56.063l-9.969 13.071c-1.675 2.197-4.812 2.619-7.008.944z" fill="#365e7d"/></g><path d="m463.493 82.098c-1.345 4.503-3.504 8.846-6.523 12.804l-9.969 13.071c-1.675 2.196-4.812 2.618-7.008.943l-97.633-74.467c-.41.488-.813.986-1.204 1.499l-9.969 13.071c-1.675 2.196-1.252 5.333.943 7.008l112.364 85.701c2.196 1.675 5.333 1.252 7.008-.943l9.969-13.071c10.422-13.665 10.687-31.889 2.022-45.616z" fill="#2b4d66"/><g><path d="m151.984 143.554c-2.285 0-4.544-1.029-6.036-2.986l-41.4-54.279c-2.541-3.331-1.9-8.09 1.431-10.631 3.332-2.54 8.091-1.899 10.631 1.431l41.4 54.279c2.541 3.331 1.9 8.09-1.431 10.631-1.374 1.048-2.991 1.555-4.595 1.555z" fill="#2b4d66"/></g><g><path d="m78.316 69.092 28.646-21.849-18.381-24.1c-5.945-7.795-17.083-9.294-24.878-3.349l-.419.319c-7.795 5.945-9.294 17.083-3.349 24.878z" fill="#f4fbff"/></g><path d="m76.825 33.269 17.823 23.367 12.315-9.393-18.381-24.1c-5.945-7.795-17.083-9.294-24.878-3.349l-.419.32c-2.444 1.864-4.268 4.239-5.439 6.862 6.815-1.942 14.421.317 18.979 6.293z" fill="#e4f6ff"/><g><path d="m67.507 141.728 50.042-38.168 4.982-7.045 7.188-2.238 50.151-38.251c2.196-1.675 2.618-4.812.943-7.008l-9.969-13.071c-13.397-17.565-38.498-20.944-56.063-7.547l-56.705 43.25c-17.565 13.397-20.944 38.498-7.547 56.063l9.969 13.071c1.676 2.197 4.813 2.619 7.009.944z" fill="#365e7d"/></g><path d="m180.814 49.019-9.969-13.071c-9.655-12.659-25.387-17.947-39.998-14.901 3.517 2.373 6.72 5.34 9.435 8.901l9.969 13.071c1.675 2.196 1.252 5.333-.943 7.008l-99.873 76.174c.353.509.715 1.015 1.094 1.513l9.969 13.071c1.675 2.196 4.812 2.618 7.008.943l112.364-85.701c2.196-1.675 2.619-4.812.944-7.008z" fill="#2b4d66"/><g><path d="m194.328 437.11-62.833-34.764-28.016 81.317c-3.381 9.814.778 20.639 9.86 25.664 9.083 5.025 20.463 2.798 26.981-5.281z" fill="#365e7d"/></g><g><path d="m172.31 424.928-52.821 65.465c-3.979 4.931-9.771 7.668-15.745 7.92 1.755 4.551 5.061 8.505 9.594 11.013 9.083 5.025 20.463 2.798 26.981-5.281l54.008-66.937z" fill="#2b4d66"/></g><g><path d="m317.672 437.11 62.833-34.764 28.016 81.317c3.381 9.814-.778 20.639-9.86 25.664-9.083 5.025-20.463 2.798-26.981-5.281z" fill="#365e7d"/></g><g><path d="m408.521 483.663-28.016-81.317-21.589 11.945 25.992 75.44c2.538 7.366.827 15.301-4.025 20.927 5.678 2.103 12.165 1.774 17.778-1.331 9.083-5.025 13.242-15.85 9.86-25.664z" fill="#2b4d66"/></g><g><circle cx="256" cy="293.344" fill="#ffe07d" r="186.126"/></g><path d="m357.354 137.221c17.101 28.143 26.949 61.18 26.949 96.518 0 102.795-83.332 186.126-186.126 186.126-37.385 0-72.19-11.031-101.354-30.003 32.645 53.723 91.72 89.608 159.177 89.608 102.795 0 186.126-83.332 186.126-186.126 0-65.409-33.746-122.93-84.772-156.123z" fill="#ffd064"/><g><g><path d="m256 495.146c-111.274 0-201.802-90.528-201.802-201.802s90.528-201.802 201.802-201.802 201.802 90.528 201.802 201.802-90.528 201.802-201.802 201.802zm0-372.252c-93.987 0-170.45 76.464-170.45 170.45s76.464 170.45 170.45 170.45 170.45-76.464 170.45-170.45-76.463-170.45-170.45-170.45z" fill="#f4fbff"/></g></g><g><path d="m395.129 147.299c30.518 35.367 48.998 81.4 48.998 131.67 0 111.274-90.528 201.802-201.802 201.802-53.882 0-102.899-21.227-139.129-55.757 37.035 42.92 91.8 70.132 152.804 70.132 111.274 0 201.802-90.528 201.802-201.802 0-57.392-24.083-109.265-62.673-146.045z" fill="#e4f6ff"/></g><g><path d="m256 300.929c-4.189 0-7.585-3.396-7.585-7.585v-119.211c0-4.189 3.396-7.585 7.585-7.585 4.19 0 7.585 3.396 7.585 7.585v119.211c0 4.189-3.395 7.585-7.585 7.585z" fill="#2b4d66"/></g><g><path d="m256 300.929h-74.184c-4.189 0-7.585-3.396-7.585-7.585s3.396-7.585 7.585-7.585h74.184c4.19 0 7.585 3.396 7.585 7.585s-3.395 7.585-7.585 7.585z" fill="#2b4d66"/></g><g><circle cx="256" cy="293.344" fill="#365e7d" r="28.657"/></g><g><path d="m266.235 266.576c1.217 3.179 1.889 6.628 1.889 10.235 0 15.827-12.83 28.657-28.657 28.657-3.607 0-7.056-.673-10.235-1.889 4.121 10.771 14.548 18.422 26.768 18.422 15.827 0 28.657-12.83 28.657-28.657 0-12.22-7.651-22.647-18.422-26.768z" fill="#2b4d66"/></g><g><path d="m187.739 264.97c-11.221 0-21.409-6.634-25.954-16.902-1.696-3.831.035-8.31 3.865-10.006 3.829-1.696 8.31.034 10.006 3.865 2.117 4.783 6.86 7.873 12.083 7.873s9.966-3.09 12.083-7.873c1.697-3.831 6.176-5.559 10.006-3.865 3.831 1.696 5.561 6.176 3.865 10.006-4.545 10.268-14.733 16.902-25.954 16.902z" fill="#ffc250"/></g><g><path d="m324.261 264.97c-11.223 0-21.41-6.635-25.954-16.903-1.696-3.831.036-8.31 3.867-10.006 3.83-1.695 8.311.036 10.006 3.867 2.117 4.782 6.859 7.872 12.082 7.872s9.965-3.09 12.083-7.873c1.697-3.831 6.177-5.56 10.007-3.865 3.83 1.696 5.561 6.176 3.866 10.006-4.548 10.268-14.736 16.902-25.957 16.902z" fill="#ffc250"/></g><g><path d="m256 387.95c-40.395 0-77.071-23.887-93.434-60.856-1.696-3.831.035-8.31 3.866-10.006 3.828-1.697 8.31.034 10.006 3.866 13.936 31.483 45.167 51.826 79.563 51.826 34.395 0 65.627-20.343 79.563-51.827 1.697-3.831 6.177-5.56 10.007-3.865 3.83 1.696 5.561 6.176 3.866 10.006-16.367 36.969-53.043 60.856-93.437 60.856z" fill="#e28086"/></g></g></svg>