<svg id="Layer_1" enable-background="new 0 0 512 512" height="512" viewBox="0 0 512 512" width="512" xmlns="http://www.w3.org/2000/svg"><g><g><path d="m398.059 126.059-34.745-34.745c-7.244-7.244-11.314-17.069-11.314-27.314 0-10.245 4.07-20.07 11.314-27.314l20.686-20.686c-53.019 0-96 42.98-96 96v32c0 8.836-7.163 16-16 16s-16-7.164-16-16v-9.373c0-14.488 5.755-28.383 16-38.627-61.856 0-112 50.144-112 112 0 75.111 60.889 136 136 136s136-60.889 136-136c0-30.734-12.209-60.209-33.941-81.941z" fill="#ff4646"/></g><g><path d="m240 16v40c0 13.255-10.745 24-24 24-13.255 0-24-10.745-24-24 0-22.091 17.909-40 40-40z" fill="#ff4646"/></g><g><g><path d="m147.373 496h332.627c8.837 0 16-7.163 16-16v-160c0-8.837-7.163-16-16-16h-332.627c-7.198 0-14.017 3.231-18.575 8.802l-59.732 73.006c-3.276 4.004-5.066 9.019-5.066 14.192 0 5.173 1.79 10.188 5.066 14.192l59.732 73.006c4.558 5.571 11.377 8.802 18.575 8.802z" fill="#32283c"/></g><g><path d="m147.373 496h308.627c8.837 0 16-7.163 16-16v-160c0-8.837-7.163-16-16-16h-308.627c-7.198 0-14.017 3.231-18.575 8.802l-59.732 73.006c-3.276 4.004-5.066 9.019-5.066 14.192 0 5.173 1.79 10.188 5.066 14.192l59.732 73.006c4.558 5.571 11.377 8.802 18.575 8.802z" fill="#463c4b"/></g><g><circle cx="104" cy="400" fill="#32283c" r="24"/></g><g fill="#e6e6eb"><path d="m362.667 352h24c4.418 0 8-3.582 8-8s-3.582-8-8-8h-24c-13.233 0-24 10.767-24 24v80c0 13.233 10.767 24 24 24h24c4.418 0 8-3.582 8-8s-3.582-8-8-8h-24c-4.411 0-8-3.589-8-8v-80c0-4.411 3.588-8 8-8z"/><path d="m450.667 448h-24c-4.411 0-8-3.589-8-8v-32h16c4.418 0 8-3.582 8-8s-3.582-8-8-8h-16v-32c0-4.411 3.589-8 8-8h24c4.418 0 8-3.582 8-8s-3.582-8-8-8h-24c-13.233 0-24 10.767-24 24v80c0 13.233 10.767 24 24 24h24c4.418 0 8-3.582 8-8s-3.582-8-8-8z"/><path d="m184 336h-24c-4.418 0-8 3.582-8 8v112c0 4.418 3.582 8 8 8s8-3.582 8-8v-48h16c13.233 0 24-10.767 24-24v-24c0-13.233-10.767-24-24-24zm8 48c0 4.411-3.589 8-8 8h-16v-40h16c4.411 0 8 3.589 8 8z"/><path d="m256 336h-24c-4.418 0-8 3.582-8 8v112c0 4.418 3.582 8 8 8s8-3.582 8-8v-48h16c4.411 0 8 3.589 8 8v40c0 4.418 3.582 8 8 8s8-3.582 8-8v-40c0-6.142-2.322-11.751-6.131-16 3.809-4.249 6.131-9.858 6.131-16v-24c0-13.233-10.767-24-24-24zm-16 16h16c4.411 0 8 3.589 8 8v24c0 4.411-3.589 8-8 8h-16z"/><path d="m309.333 336c-4.418 0-8 3.582-8 8v112c0 4.418 3.582 8 8 8s8-3.582 8-8v-112c0-4.418-3.581-8-8-8z"/></g></g><path d="m104 392h-32c-22.056 0-40-17.944-40-40v-64c0-22.056 17.944-40 40-40h93.983c-1.6-5.208-2.9-10.547-3.871-16h-90.112c-30.878 0-56 25.122-56 56v64c0 30.878 25.122 56 56 56h32c4.418 0 8-3.582 8-8s-3.582-8-8-8z" fill="#e6e6eb"/><g fill="#faa037"><path d="m256 178.667c-4.418 0-8 3.582-8 8v32h-16v-32c0-4.418-3.582-8-8-8s-8 3.582-8 8v88c0 4.418 3.582 8 8 8s8-3.582 8-8v-40h16v40c0 4.418 3.582 8 8 8s8-3.582 8-8v-88c0-4.419-3.582-8-8-8z"/><path d="m304 178.667c-13.234 0-24 10.766-24 24v56c0 13.234 10.766 24 24 24s24-10.766 24-24v-56c0-13.234-10.766-24-24-24zm8 80c0 4.411-3.589 8-8 8s-8-3.589-8-8v-56c0-4.411 3.589-8 8-8s8 3.589 8 8z"/><path d="m373.333 178.667h-32c-4.418 0-8 3.582-8 8s3.582 8 8 8h8v80c0 4.418 3.582 8 8 8s8-3.582 8-8v-80h8c4.418 0 8-3.582 8-8s-3.581-8-8-8z"/></g></g></svg>