<svg id="Layer_1" enable-background="new 0 0 128 128" height="512" viewBox="0 0 128 128" width="512" xmlns="http://www.w3.org/2000/svg"><g><path d="m100.464 88.837c11.665-19.918 18.006-42.778 18.006-66.398 0-1.409-.618-2.736-1.694-3.642-1.097-.922-2.542-1.309-3.968-1.062-15.851 2.765-30.719-.409-44.189-9.438-1.591-1.066-3.647-1.066-5.238 0-13.47 9.028-28.337 12.203-44.189 9.438-1.423-.247-2.871.14-3.967 1.062-1.077.905-1.694 2.232-1.694 3.642 0 38.246 16.607 74.511 45.563 99.496 1.969 1.699 4.438 2.549 6.907 2.549s4.938-.85 6.907-2.549c2.282-1.969 4.478-4.016 6.604-6.12 3.218 5.203 8.959 8.688 15.514 8.688 10.062 0 18.248-8.186 18.248-18.247-.002-8.168-5.397-15.099-12.81-17.419z" fill="#e6e7e8"/><g><g><g><g><path d="m108.98 14.721c-16.19 2.824-31.163-.374-44.918-9.594-1.242-.833-2.882-.833-4.125 0-13.755 9.22-28.728 12.417-44.918 9.594-2.338-.408-4.49 1.345-4.49 3.718 0 37.921 16.506 73.965 45.216 98.739 3.593 3.1 8.915 3.1 12.508 0 2.592-2.237 5.081-4.568 7.47-6.981-1.237-2.378-1.947-5.075-1.947-7.941 0-9.525 7.722-17.247 17.247-17.247 1.342 0 2.643.168 3.897.458 12.005-20.038 18.549-43.16 18.549-67.028.001-2.373-2.151-4.126-4.489-3.718z" fill="#fa759e"/><path d="m86.502 85.628c11.617-17.486 17.998-38.178 17.998-59.597 0-1.959-1.777-3.407-3.708-3.07-13.368 2.332-25.732-.309-37.089-7.922-1.026-.688-2.38-.688-3.406 0-11.358 7.613-23.721 10.253-37.089 7.922-1.93-.337-3.708 1.11-3.708 3.07 0 31.313 13.629 61.074 37.336 81.531 2.967 2.56 7.361 2.56 10.328 0 2.319-2.001 4.539-4.094 6.662-6.267.416-7.529 5.647-13.759 12.676-15.667z" fill="#ffd7e5"/><path d="m82.431 48.472h-12.891v-12.891c0-.895-.726-1.621-1.621-1.621h-12.733c-.895 0-1.621.726-1.621 1.621v12.891h-12.891c-.895 0-1.621.726-1.621 1.621v12.732c0 .895.726 1.621 1.621 1.621h12.891v12.891c0 .895.726 1.621 1.621 1.621h12.732c.895 0 1.621-.726 1.621-1.621v-12.89h12.891c.895 0 1.621-.726 1.621-1.621v-12.733c.001-.895-.725-1.621-1.62-1.621z" fill="#6dc9f7"/></g></g></g><g><g><circle cx="91.025" cy="102.256" fill="#0089ef" r="17.247"/></g><path d="m91.025 88.008c9.019 0 16.41 6.926 17.172 15.747.043-.495.076-.993.076-1.5 0-9.525-7.722-17.247-17.247-17.247s-17.247 7.722-17.247 17.247c0 .507.033 1.005.076 1.5.76-8.821 8.151-15.747 17.17-15.747z" fill="#fff"/><g fill="#3a2c60"><path d="m109.525 50.291c-.534-.144-1.08.182-1.219.716-.931 3.58-2.031 7.167-3.269 10.662-.185.521.088 1.092.608 1.276.11.039.223.058.334.058.412 0 .797-.256.942-.666 1.258-3.549 2.375-7.191 3.32-10.826.14-.535-.181-1.081-.716-1.22z"/><path d="m112.776 14.797c-1.097-.922-2.542-1.308-3.968-1.062-15.852 2.767-30.719-.409-44.189-9.438-1.591-1.066-3.647-1.066-5.238 0-13.47 9.028-28.339 12.202-44.19 9.438-1.422-.245-2.87.14-3.967 1.062-1.077.905-1.694 2.232-1.694 3.642 0 38.246 16.607 74.511 45.563 99.496 1.969 1.699 4.438 2.549 6.907 2.549s4.938-.85 6.907-2.549c2.275-1.963 4.462-4.023 6.592-6.139 3.216 5.214 8.963 8.708 15.525 8.708 10.062 0 18.248-8.186 18.248-18.247 0-8.184-5.416-15.126-12.851-17.432 3.465-5.908 6.497-12.072 8.999-18.459.201-.514-.052-1.094-.566-1.295-.514-.205-1.095.052-1.296.566-2.537 6.477-5.627 12.722-9.169 18.696-1.092-.205-2.213-.324-3.364-.324-10.062 0-18.248 8.187-18.248 18.248 0 2.756.632 5.361 1.73 7.706-2.227 2.231-4.518 4.398-6.907 6.459-3.192 2.754-8.007 2.754-11.201 0-28.515-24.607-44.869-60.319-44.869-97.984 0-.829.349-1.578.982-2.111.644-.541 1.496-.768 2.336-.621 16.377 2.854 31.734-.423 45.647-9.748.899-.604 2.109-.605 3.011.001 13.912 9.325 29.269 12.604 45.646 9.747.842-.145 1.693.08 2.337.621.633.533.982 1.282.982 2.111 0 9.537-1.06 19.086-3.149 28.383-.121.539.217 1.074.756 1.195.54.123 1.074-.217 1.195-.756 2.122-9.441 3.198-19.139 3.198-28.822-.001-1.409-.618-2.736-1.695-3.641zm-21.751 71.211c8.959 0 16.248 7.289 16.248 16.248s-7.289 16.247-16.248 16.247-16.248-7.288-16.248-16.247 7.289-16.248 16.248-16.248z"/><path d="m55.186 79.959h12.732c1.445 0 2.622-1.176 2.622-2.621v-11.891h11.891c1.445 0 2.621-1.176 2.621-2.622v-12.732c0-1.445-1.176-2.621-2.621-2.621h-11.891v-11.891c0-1.446-1.176-2.622-2.622-2.622h-12.732c-1.445 0-2.621 1.176-2.621 2.622v11.891h-11.891c-1.445 0-2.622 1.176-2.622 2.621v12.732c0 1.446 1.176 2.622 2.622 2.622h11.891v11.891c0 1.445 1.176 2.621 2.621 2.621zm-14.512-16.512c-.343 0-.622-.279-.622-.622v-12.732c0-.343.279-.621.622-.621h12.891c.552 0 1-.447 1-1v-12.891c0-.343.279-.622.621-.622h12.732c.343 0 .622.279.622.622v12.891c0 .553.448 1 1 1h12.891c.342 0 .621.278.621.621v12.732c0 .343-.279.622-.621.622h-12.891c-.552 0-1 .447-1 1v12.891c0 .343-.279.621-.622.621h-12.732c-.342 0-.621-.278-.621-.621v-12.891c0-.553-.448-1-1-1z"/></g><g><path d="m86.744 112.185c-.022 0-.044 0-.066-.001-.686-.019-1.33-.332-1.769-.858l-5.971-7.166c-.844-1.014-.707-2.52.306-3.364 1.013-.845 2.519-.708 3.364.306l4.236 5.083 11.051-11.87c.898-.965 2.41-1.02 3.376-.12.965.899 1.019 2.41.12 3.376l-12.898 13.854c-.453.485-1.087.76-1.749.76z" fill="#fff"/></g></g></g></g></svg>