<svg id="Layer_1" enable-background="new 0 0 256 256" height="512" viewBox="0 0 256 256" width="512" xmlns="http://www.w3.org/2000/svg"><path d="m103.796 198.021c2.191 0 4.523 1.702 5.191 3.784 0 0 10.063 31.356-35.693 40.729h-55.533c-2.184 0-3.808-1.779-3.605-3.956 0 0 1.445-15.199 17.361-15.199 0 0-3.979-25.357 32.491-25.357h39.788z" fill="#e0bb07"/><path d="m108.987 201.806c-.668-2.082-3-3.784-5.191-3.784h-11.455c2.191 0 4.53 1.702 5.199 3.784 0 0 10.056 31.356-35.7 40.729h11.454c45.757-9.373 35.693-40.729 35.693-40.729z" fill="#ffdc00"/><path d="m107.774 198.021v-4.927c0-10.988-8.906-19.895-19.894-19.895h-3.979c-10.989 0-19.894 8.906-19.894 19.895v4.927z" fill="#e57225"/><path d="m87.88 173.2h-3.979c-1.104 0-2.176.155-3.232.327 9.441 1.554 16.661 9.691 16.661 19.567v4.927h10.445v-4.927c-.001-10.988-8.906-19.894-19.895-19.894z" fill="#ff8b38"/><path d="m90.367 173.2h-8.945l55.7-164.179h8.447z" fill="#098dd6"/><path d="m143.066 9.021-55.691 164.179h2.992l55.202-164.179z" fill="#14a2ff"/><g fill="#24202b"><path d="m90.367 174.989h-8.945c-.577 0-1.118-.278-1.454-.747s-.425-1.071-.24-1.617l55.7-164.18c.246-.726.928-1.214 1.694-1.214h8.447c.576 0 1.116.277 1.452.745.337.467.427 1.068.244 1.614l-20.452 60.917c-.314.937-1.327 1.442-2.265 1.126-.937-.314-1.441-1.329-1.126-2.265l19.66-58.559h-4.678l-54.486 160.602h5.168l5.796-16.997c.319-.935 1.335-1.434 2.271-1.116.935.319 1.435 1.335 1.116 2.271l-6.209 18.208c-.247.725-.928 1.212-1.693 1.212z"/><path d="m107.774 199.811h-43.767c-.988 0-1.789-.801-1.789-1.789v-4.927c0-11.957 9.727-21.684 21.683-21.684h3.979c11.956 0 21.683 9.727 21.683 21.684v4.927c0 .987-.8 1.789-1.789 1.789zm-41.978-3.579h40.189v-3.138c0-9.983-8.122-18.105-18.105-18.105h-3.979c-9.983 0-18.105 8.122-18.105 18.105z"/><path d="m73.294 244.323h-55.533c-1.566 0-2.994-.62-4.02-1.746s-1.512-2.605-1.367-4.165c.527-5.545 4.828-15.79 17.227-16.75-.066-3.19.502-9.641 5.354-15.314 5.741-6.712 15.516-10.116 29.052-10.116h39.789c2.961 0 5.99 2.208 6.895 5.026.151.47 3.613 11.625-3.02 22.969-5.771 9.869-17.216 16.618-34.018 20.059-.118.025-.238.037-.359.037zm-9.287-44.512c-12.413 0-21.26 2.968-26.297 8.822-5.559 6.46-4.437 14.395-4.425 14.475.078.515-.073 1.041-.413 1.436s-.834.625-1.355.625c-14.052 0-15.524 13.03-15.581 13.584-.049.536.11 1.042.45 1.415s.828.578 1.375.578h55.351c15.667-3.239 26.254-9.403 31.47-18.324 5.835-9.98 2.734-19.969 2.702-20.069-.435-1.354-2.064-2.542-3.488-2.542z"/><path d="m51.362 232.792c-12.569 0-20.966-8.006-21.097-8.135-.706-.691-.717-1.824-.026-2.53.689-.705 1.821-.717 2.527-.028.752.731 18.692 17.671 41.474-3.142.728-.667 1.861-.616 2.527.114.667.729.615 1.861-.114 2.527-9.299 8.496-17.999 11.194-25.291 11.194z"/><path d="m50.578 215.555c-.96 0-1.755-.762-1.787-1.729-.033-.987.741-1.814 1.729-1.848 13.967-.465 26.422-14.967 26.546-15.113.638-.753 1.768-.846 2.521-.207s.846 1.768.207 2.521c-.549.647-13.622 15.857-29.156 16.375-.019 0-.04.001-.06.001z"/><path d="m85.893 227.451c-.577 0-1.143-.278-1.488-.793-.55-.821-.331-1.932.49-2.482 12.349-8.274 10.674-25.791 10.655-25.966-.102-.982.61-1.862 1.592-1.966.986-.109 1.862.606 1.966 1.588.086.805 1.942 19.826-12.221 29.317-.306.204-.652.302-.994.302z"/></g><path d="m67.403 123.716c-.654 0-1.256-.357-1.569-.931l-4.668-8.539-8.547-4.676c-.574-.314-.93-.916-.93-1.57s.357-1.256.932-1.569l8.545-4.666 4.668-8.546c.313-.574.915-.931 1.569-.932h.001c.654 0 1.256.357 1.569.931l4.675 8.547 8.539 4.666c.574.313.931.915.931 1.569s-.357 1.256-.93 1.57l-8.541 4.676-4.675 8.54c-.313.573-.914.93-1.569.93z" fill="#b8dff4"/><path d="m67.404 94.075 4.926 9.007 8.999 4.918-8.999 4.928-4.926 8.999-4.919-8.999-9.007-4.928 9.006-4.918zm0-3.578c-1.309 0-2.513.715-3.14 1.863l-4.416 8.085-8.084 4.415c-1.148.627-1.863 1.83-1.863 3.139 0 1.308.713 2.513 1.861 3.14l8.087 4.425 4.417 8.08c.627 1.147 1.831 1.861 3.139 1.862 1.308 0 2.511-.713 3.139-1.86l4.424-8.081 8.082-4.425c1.146-.628 1.86-1.832 1.859-3.14 0-1.308-.715-2.511-1.862-3.138l-8.079-4.415-4.423-8.087c-.63-1.149-1.834-1.863-3.141-1.863z" fill="#24202b"/><path d="m208.794 112.518c-.654 0-1.256-.357-1.569-.931l-3.548-6.488-6.487-3.548c-.574-.313-.931-.915-.931-1.569s.356-1.256.931-1.569l6.487-3.548 3.547-6.496c.313-.574.916-.932 1.57-.932s1.256.357 1.57.931l3.549 6.496 6.495 3.548c.574.313.932.916.932 1.57s-.357 1.256-.932 1.57l-6.496 3.549-3.549 6.487c-.313.573-.915.93-1.569.93z" fill="#b8dff4"/><path d="m208.794 89.226 3.801 6.956 6.956 3.8-6.956 3.8-3.801 6.947-3.799-6.947-6.947-3.8 6.947-3.8zm0-3.579c-1.31 0-2.513.715-3.141 1.863l-3.296 6.035-6.026 3.296c-1.148.627-1.861 1.831-1.861 3.139s.714 2.512 1.861 3.139l6.027 3.297 3.296 6.028c.628 1.147 1.831 1.861 3.139 1.861 1.309 0 2.512-.713 3.14-1.861l3.298-6.027 6.035-3.297c1.148-.627 1.863-1.832 1.863-3.14 0-1.309-.715-2.513-1.863-3.14l-6.034-3.296-3.298-6.035c-.627-1.147-1.832-1.862-3.14-1.862z" fill="#24202b"/><path d="m241.861 131.407c0 3.956-3.21 7.166-7.165 7.166h-114.691c-3.955 0-7.165-3.21-7.165-7.166 0-3.956 3.21-7.165 7.165-7.165h114.691c3.955 0 7.165 3.209 7.165 7.165z" fill="#7fd57a"/><path d="m120.62 138.573 6.2 87.432c0 11.54 9.44 20.975 20.973 20.975h58.229c11.539 0 20.981-9.435 20.981-20.975l6.202-87.432z" fill="#7fd57a"/><path d="m233.204 138.573h-97.559-15.025l.568 8.043 5.632 79.389c0 11.54 9.44 20.975 20.973 20.975h15.029c-11.532 0-20.976-9.435-20.976-20.975l-5.633-79.389h96.416z" fill="#1d966a"/><path d="m168.12 124.242v6.768c0 3.986 3.226 7.212 7.213 7.212 3.978 0 7.211-3.226 7.211-7.212v-6.768z" fill="#7fd57a"/><path d="m175.333 140.012c-4.964 0-9.002-4.038-9.002-9.001v-8.558h18.002v8.558c0 4.963-4.037 9.001-9 9.001zm-5.424-13.981v4.979c0 2.99 2.433 5.423 5.424 5.423 2.989 0 5.422-2.433 5.422-5.423v-4.979z" fill="#24202b"/><path d="m206.021 248.769h-58.229c-12.529 0-22.727-10.176-22.762-22.699l-6.082-85.77c-4.441-.525-7.896-4.313-7.896-8.893 0-4.938 4.017-8.954 8.954-8.954h84.454c.988 0 1.789.801 1.789 1.789s-.801 1.789-1.789 1.789h-84.454c-2.964 0-5.375 2.412-5.375 5.376 0 2.965 2.412 5.377 5.375 5.377h.614c.939 0 1.718.726 1.785 1.663l6.2 87.431c.003.042.004.084.004.126 0 10.579 8.605 19.186 19.184 19.186h58.229c10.582 0 19.191-8.606 19.191-19.186 0-.042.002-.084.005-.126l3.475-48.935c.069-.986.938-1.717 1.911-1.658.985.07 1.728.926 1.657 1.911l-3.47 48.873c-.035 12.523-10.236 22.7-22.77 22.7z" fill="#24202b"/><path d="m199.741 140.362h-79.736c-.988 0-1.789-.801-1.789-1.789s.801-1.789 1.789-1.789h79.736c.988 0 1.789.801 1.789 1.789s-.801 1.789-1.789 1.789z" fill="#24202b"/><path d="m126.408 202.804c-2.367 0-4.415-.659-6.129-1.979-8.435-6.492-4.545-26.857-4.375-27.721.19-.97 1.129-1.598 2.1-1.411.969.19 1.601 1.13 1.411 2.1-1.034 5.283-2.503 19.928 3.048 24.198 2.493 1.917 6.411 1.598 11.646-.95.06-.028.12-.054.182-.076.264-.097 27.091-10.486 38.638-65.66.203-.968 1.16-1.583 2.117-1.385.968.202 1.587 1.15 1.385 2.118-11.767 56.223-38.672 67.443-40.836 68.26-3.454 1.67-6.523 2.506-9.187 2.506z" fill="#24202b"/></svg>