<svg id="Layer_1" enable-background="new 0 0 256 256" height="512" viewBox="0 0 256 256" width="512" xmlns="http://www.w3.org/2000/svg"><path d="m59.095 25.938c-.974 11.564-13.025 13.39-13.025 13.39 10.347.487 12.925 14.059 12.925 14.059.221-9.677 13.321-14.202 13.321-14.202-9.813-.588-13.221-13.247-13.221-13.247z" fill="#d5dc57"/><path d="m72.407 37.687c-8.605-.515-11.833-12.024-11.864-12.141-.19-.702-.85-1.162-1.583-1.102-.725.066-1.298.642-1.359 1.367-.86 10.215-11.314 11.964-11.754 12.033-.763.115-1.313.79-1.273 1.561.04.77.657 1.384 1.428 1.421 9.028.425 11.498 12.718 11.522 12.842.137.711.759 1.217 1.472 1.217.042 0 .085-.001.127-.005.764-.064 1.357-.693 1.374-1.459.195-8.508 12.192-12.777 12.313-12.819.675-.235 1.092-.914.994-1.623-.1-.708-.683-1.249-1.397-1.292zm-13.567 10.346c-1.356-3.131-3.709-6.908-7.587-8.877 2.931-1.405 6.409-3.913 8.202-8.272 1.551 3.071 4.2 6.88 8.334 8.722-3.007 1.64-6.922 4.406-8.949 8.427z" fill="#3a312a"/><path d="m37.396 42.919c-.689 8.179-9.212 9.47-9.212 9.47 7.318.344 9.142 9.944 9.142 9.944.156-6.844 9.422-10.045 9.422-10.045-6.941-.415-9.352-9.369-9.352-9.369z" fill="#d5dc57"/><path d="m46.838 50.791c-5.766-.345-7.973-8.186-7.994-8.265-.191-.702-.85-1.167-1.582-1.102-.726.065-1.299.643-1.36 1.368-.579 6.871-7.646 8.067-7.942 8.114-.763.115-1.313.79-1.273 1.561.04.77.657 1.384 1.428 1.421 6.035.284 7.723 8.644 7.739 8.726.135.713.759 1.22 1.472 1.22.042 0 .083-.001.125-.005.765-.063 1.358-.694 1.376-1.461.13-5.709 8.331-8.634 8.413-8.662.676-.234 1.094-.913.996-1.622-.099-.709-.684-1.251-1.398-1.293zm-9.585 6.794c-.924-1.885-2.34-3.947-4.447-5.28 1.855-1.041 3.697-2.63 4.871-4.916 1.057 1.874 2.654 3.954 4.941 5.223-1.85 1.102-3.989 2.741-5.365 4.973z" fill="#3a312a"/><path d="m37.358 16.261c-.657 8.182-9.175 9.507-9.175 9.507 7.319.316 9.181 9.908 9.181 9.908.129-6.845 9.383-10.082 9.383-10.082-6.943-.388-9.389-9.333-9.389-9.333z" fill="#d5dc57"/><path d="m46.83 24.097c-5.741-.321-7.983-8.083-8.025-8.231-.193-.702-.867-1.168-1.586-1.097-.726.068-1.297.647-1.356 1.374-.552 6.873-7.615 8.096-7.911 8.144-.762.119-1.31.796-1.267 1.566s.663 1.382 1.433 1.415c6.036.261 7.756 8.614 7.772 8.696.138.71.76 1.214 1.471 1.214.043 0 .087-.002.131-.005.765-.066 1.356-.699 1.37-1.466.108-5.71 8.298-8.667 8.378-8.695.676-.236 1.09-.917.99-1.626-.098-.71-.685-1.249-1.4-1.289zm-9.558 6.832c-.931-1.882-2.355-3.938-4.468-5.263 1.852-1.048 3.687-2.644 4.852-4.935 1.064 1.87 2.669 3.944 4.961 5.204-1.845 1.108-3.977 2.757-5.345 4.994z" fill="#3a312a"/><path d="m119.359 193.279c-8.51 0-16.71-4.44-21.24-12.2-1.73-2.97-4.05-5.52-6.78-7.5-2.72-1.97-5.84-3.4-9.19-4.13l-20.21 53.14 31.74-15.59 13.37 32.74 17.92-47.13c-1.86.45-3.74.67-5.61.67z" fill="#87796f"/><path d="m126.094 191.617c-.369-.417-.935-.597-1.478-.466-1.722.417-3.491.627-5.258.627-8.177 0-15.819-4.39-19.944-11.455-1.834-3.149-4.255-5.827-7.196-7.96-2.957-2.141-6.237-3.615-9.75-4.381-.723-.154-1.458.238-1.721.933l-20.21 53.14c-.219.576-.064 1.227.392 1.642.455.415 1.119.51 1.671.237l30.298-14.881 12.762 31.252c.23.565.78.933 1.389.933h.018c.616-.008 1.165-.391 1.384-.967l17.92-47.13c.198-.519.091-1.106-.277-1.524zm-19.096 44.032-11.931-29.218c-.157-.385-.467-.688-.855-.835-.172-.065-.353-.098-.533-.098-.227 0-.453.051-.661.154l-28.324 13.912 18.385-48.34c2.638.731 5.115 1.929 7.379 3.569 2.601 1.886 4.742 4.255 6.366 7.042 4.661 7.984 13.296 12.943 22.535 12.943 1.089 0 2.179-.071 3.261-.211z" fill="#3a312a"/><path d="m206.373 196.333-5.018-13.195-5.206-13.689c-6.71 1.48-12.51 5.69-15.97 11.63-4.53 7.76-12.73 12.2-21.24 12.2-1.87 0-3.75-.22-5.61-.67l17.92 47.13 13.37-32.74 31.74 15.59z" fill="#87796f"/><path d="m217.761 222.055-9.985-26.255c-.296-.774-1.16-1.163-1.936-.869-.774.294-1.163 1.161-.869 1.935l8.633 22.698-28.324-13.912c-.374-.185-.808-.204-1.194-.056-.389.147-.698.45-.856.835l-11.931 29.217-15.621-41.082c1.081.14 2.172.211 3.261.211 9.239 0 17.875-4.959 22.536-12.945 3.018-5.18 7.978-8.992 13.745-10.607l4.732 12.444c.296.775 1.161 1.165 1.936.869.774-.294 1.163-1.161.869-1.935l-5.206-13.689c-.266-.696-1.002-1.092-1.726-.932-7.113 1.569-13.289 6.067-16.941 12.338-4.126 7.066-11.769 11.456-19.945 11.456-1.767 0-3.535-.211-5.258-.627-.542-.131-1.11.049-1.478.466s-.475 1.004-.277 1.525l17.921 47.13c.22.576.768.959 1.384.967h.019c.608 0 1.158-.368 1.389-.933l12.762-31.252 30.298 14.881c.552.272 1.215.178 1.671-.237.454-.414.609-1.065.391-1.641z" fill="#3a312a"/><path d="m221.595 91.407-.044-.05c-4.57-5.132-6.782-11.943-6.101-18.78l.005-.055c1.237-12.421-7.033-23.797-19.23-26.452l-.037-.008c-6.729-1.465-12.535-5.685-16.004-11.633l-.002-.003c-6.297-10.796-19.693-15.148-31.132-10.113-6.309 2.777-13.493 2.777-19.802 0-11.439-5.035-24.836-.683-31.132 10.113l-.001.002c-3.469 5.949-9.275 10.169-16.004 11.634l-.037.008c-12.197 2.655-20.467 14.031-19.23 26.452l.005.055c.681 6.838-1.532 13.648-6.101 18.78l-.044.05c-8.296 9.317-8.296 23.372 0 32.689l.044.05c4.57 5.132 6.782 11.943 6.101 18.781l-.005.054c-1.237 12.421 7.033 23.797 19.23 26.452l.037.008c6.729 1.465 12.534 5.685 16.004 11.633l.002.003c6.297 10.796 19.693 15.148 31.132 10.113 6.309-2.776 13.493-2.777 19.802 0 11.439 5.035 24.835.683 31.132-10.113l.001-.002c3.469-5.949 9.275-10.169 16.004-11.633l.037-.008c12.197-2.655 20.467-14.03 19.23-26.451l-.005-.055c-.681-6.838 1.532-13.648 6.101-18.781l.044-.049c8.296-9.318 8.296-23.373 0-32.691z" fill="#87796f"/><path d="m222.671 90.36c-4.278-4.804-6.366-11.231-5.725-17.689 1.313-13.183-7.458-25.248-20.44-28.074-6.288-1.368-11.756-5.336-15.008-10.889-.007-.013-.014-.025-.021-.037-6.685-11.462-20.883-16.074-33.032-10.73-5.906 2.601-12.684 2.601-18.594 0-12.14-5.343-26.328-.74-33.018 10.707-.005.009-.01.018-.016.026-3.249 5.571-8.726 9.552-15.064 10.932-12.945 2.818-21.717 14.883-20.399 28.122.638 6.401-1.45 12.829-5.773 17.683-8.804 9.887-8.804 24.798.044 34.735 4.278 4.804 6.366 11.232 5.724 17.688-1.313 13.183 7.458 25.249 20.441 28.074 6.301 1.372 11.778 5.353 15.029 10.926 4.81 8.246 13.505 12.947 22.53 12.946 3.521 0 7.093-.716 10.502-2.216 5.907-2.6 12.687-2.601 18.593 0 12.144 5.345 26.346.732 33.032-10.73.005-.009.011-.019.016-.028 3.251-5.557 8.722-9.528 15.051-10.906 12.944-2.817 21.716-14.883 20.398-28.121-.637-6.403 1.451-12.83 5.734-17.639l.042-.048c8.802-9.887 8.801-24.797-.046-34.732zm-2.196 32.739 1.12.998-1.164-.948c-4.835 5.429-7.194 12.691-6.468 19.981 1.161 11.667-6.602 22.344-18.095 24.845-7.12 1.55-13.31 6.049-16.982 12.343-.005.009-.011.019-.016.028-5.922 10.125-18.477 14.198-29.217 9.471-6.677-2.938-14.334-2.938-21.01 0-10.749 4.732-23.315.649-29.234-9.499-3.671-6.294-9.86-10.793-17.018-12.351-11.456-2.493-19.218-13.171-18.051-24.892.72-7.234-1.64-14.497-6.518-19.976-7.791-8.75-7.791-21.945.044-30.744 4.835-5.43 7.194-12.693 6.468-19.981-1.162-11.667 6.601-22.344 18.094-24.846 7.112-1.548 13.294-6.037 16.967-12.32.005-.008.01-.017.015-.025 5.917-10.144 18.483-14.228 29.233-9.496 6.676 2.938 14.336 2.937 21.01 0 10.734-4.727 23.287-.658 29.212 9.461.007.013.014.025.02.037 3.672 6.294 9.861 10.793 17.019 12.351 11.456 2.493 19.219 13.171 18.052 24.892-.721 7.235 1.639 14.498 6.518 19.976 7.792 8.75 7.792 21.946.001 30.695z" fill="#3a312a"/><ellipse cx="139.149" cy="107.752" fill="#d4db56" rx="66.217" ry="66.217" transform="matrix(.707 -.707 .707 .707 -35.437 129.953)"/><path d="m139.148 40.035c-37.339 0-67.717 30.378-67.717 67.717s30.378 67.717 67.717 67.717c37.34 0 67.718-30.378 67.718-67.717s-30.378-67.717-67.718-67.717zm0 132.434c-35.685 0-64.717-29.032-64.717-64.717s29.032-64.717 64.717-64.717c35.686 0 64.718 29.032 64.718 64.717s-29.032 64.717-64.718 64.717z" fill="#3a312a"/><path d="m171.153 109.815h-20.441c-1.979 0-3.581-1.603-3.581-3.581v-11.667c0-3.995-3.239-7.234-7.229-7.234-1.998 0-3.805.809-5.113 2.116-1.308 1.313-2.117 3.12-2.117 5.117v9.027c0 3.719-2.368 7.029-5.893 8.228l-7.02 2.392c.028.214.043.433.043.656v32.712c0 .1-.005.195-.005.29l1.517.385c7.353 1.869 14.906 2.83 22.492 2.877.062 0 .119.005.181.005h.293 6.325 11.022c2.835 0 5.132-2.297 5.132-5.132v-.067c0-2.834-2.297-5.132-5.132-5.132h3.51c2.835 0 5.132-2.297 5.132-5.132v-.067c0-2.774-2.2-5.033-4.95-5.129-.056-.002-2.979-.003-3.394-.003h6.723c2.834 0 5.132-2.297 5.132-5.132v-.067c0-2.834-2.297-5.132-5.132-5.132h-5.841l.005-.005h8.342c2.835 0 5.132-2.297 5.132-5.132v-.067c-.001-2.829-2.298-5.126-5.133-5.126z" fill="#f4e0c4"/><path d="m177.785 114.947c0-3.657-2.975-6.632-6.632-6.632h-20.441c-1.148 0-2.082-.934-2.082-2.081v-11.667c0-4.816-3.916-8.734-8.729-8.734-2.334 0-4.526.908-6.176 2.558-1.646 1.653-2.554 3.846-2.554 6.176v9.027c0 3.08-1.96 5.816-4.877 6.808l-7.02 2.392c-.678.231-1.098.91-1.003 1.62.021.148.03.301.03.456v32.712l-.005.29c0 .686.466 1.285 1.131 1.454l1.517.385c7.442 1.892 15.131 2.875 22.891 2.925.02.001.131.004.151.004h17.641c3.657 0 6.632-2.975 6.632-6.699 0-1.455-.471-2.801-1.268-3.896 2.757-.806 4.777-3.366 4.777-6.434 0-1.459-.464-2.806-1.255-3.9 2.751-.81 4.765-3.367 4.765-6.43 0-1.585-.559-3.042-1.49-4.184 2.35-1.024 3.997-3.38 3.997-6.15zm-6.632 3.698h-8.343c-.397 0-.784.163-1.065.444-.429.429-.558 1.074-.325 1.635.232.561.779.926 1.386.926h5.841c2.003 0 3.632 1.629 3.632 3.699 0 2.002-1.629 3.631-3.632 3.631h-6.771c-.828 0-1.5.671-1.5 1.5s.672 1.5 1.5 1.5c.059 0 3.224.001 3.391.002 1.964.068 3.502 1.663 3.502 3.696 0 2.002-1.629 3.631-3.632 3.631h-3.51c-.828 0-1.5.671-1.5 1.5s.672 1.5 1.5 1.5c2.003 0 3.632 1.629 3.632 3.699 0 2.002-1.629 3.632-3.632 3.632l-17.67-.001c-.017-.001-.125-.004-.142-.004-7.479-.047-14.925-.999-22.132-2.831l-.381-.097v-31.434l5.96-2.031c4.133-1.406 6.91-5.283 6.91-9.648v-9.027c0-1.531.597-2.972 1.677-4.057 1.081-1.082 2.521-1.677 4.053-1.677 3.159 0 5.729 2.572 5.729 5.734v11.667c0 2.802 2.28 5.081 5.082 5.081h20.441c2.003 0 3.632 1.629 3.632 3.699-.001 2.002-1.63 3.631-3.633 3.631z" fill="#3a312a"/><path d="m114.405 109.471h-7.111c-2.917 0-5.282 2.365-5.282 5.282v32.946c0 2.917 2.365 5.281 5.282 5.281h7.111c2.982 0 5.399-2.417 5.399-5.399v-32.711c0-2.982-2.417-5.399-5.399-5.399z" fill="#8bc0d7"/><path d="m114.405 107.971h-7.111c-3.739 0-6.782 3.042-6.782 6.782v8.081c0 .829.671 1.5 1.5 1.5s1.5-.671 1.5-1.5v-8.081c0-2.085 1.696-3.782 3.782-3.782h7.111c2.15 0 3.899 1.749 3.899 3.899v32.711c0 2.15-1.749 3.899-3.899 3.899h-7.111c-2.085 0-3.782-1.696-3.782-3.781v-12.857c0-.829-.671-1.5-1.5-1.5s-1.5.671-1.5 1.5v12.857c0 3.739 3.042 6.781 6.782 6.781h7.111c3.804 0 6.899-3.095 6.899-6.899v-32.711c0-3.804-3.095-6.899-6.899-6.899z" fill="#3a312a"/><path d="m110.876 142.054c-1.801 0-3.261 1.46-3.261 3.261s1.46 3.261 3.261 3.261 3.261-1.46 3.261-3.261-1.46-3.261-3.261-3.261z" fill="#87796f"/><path d="m110.876 140.554c-2.625 0-4.761 2.136-4.761 4.761s2.136 4.761 4.761 4.761c2.626 0 4.761-2.136 4.761-4.761.001-2.625-2.135-4.761-4.761-4.761zm0 6.522c-.971 0-1.761-.79-1.761-1.761s.79-1.761 1.761-1.761 1.761.79 1.761 1.761c.001.971-.789 1.761-1.761 1.761z" fill="#3a312a"/><path d="m152.035 64.638c1.247-1.215.559-3.333-1.164-3.583l-5.454-.792c-.684-.099-1.276-.529-1.582-1.149l-2.439-4.942c-.771-1.561-2.997-1.561-3.768 0l-2.439 4.942c-.306.62-.898 1.05-1.582 1.149l-5.454.792c-1.723.25-2.411 2.368-1.164 3.583l3.947 3.847c.495.483.721 1.178.604 1.859l-.932 5.432c-.294 1.716 1.507 3.025 3.048 2.215l4.878-2.565c.612-.322 1.343-.322 1.955 0l4.878 2.565c1.541.81 3.343-.499 3.048-2.215l-.932-5.432c-.117-.681.109-1.377.604-1.859z" fill="#f16c7a"/><path d="m153.083 65.712c.988-.964 1.337-2.379.909-3.692-.427-1.313-1.541-2.251-2.906-2.449l-5.454-.792c-.195-.028-.364-.151-.452-.329l-2.44-4.942c-.61-1.238-1.848-2.007-3.229-2.007s-2.618.769-3.228 2.007l-2.44 4.943c-.087.177-.256.3-.452.328l-5.453.792c-1.366.198-2.48 1.137-2.907 2.45s-.079 2.728.911 3.692l3.946 3.846c.142.139.206.337.173.533l-.932 5.432c-.233 1.361.316 2.71 1.433 3.521 1.116.813 2.57.917 3.793.274l4.878-2.565c.174-.092.385-.092.559 0l4.878 2.565c.532.279 1.107.417 1.679.417.744 0 1.482-.233 2.113-.691 1.117-.812 1.667-2.161 1.434-3.522l-.932-5.432c-.034-.195.031-.394.172-.532zm-6.042 1.7c-.849.828-1.235 2.02-1.035 3.187l.932 5.432c.055.32-.126.506-.239.588s-.347.197-.633.046l-4.878-2.565c-.525-.276-1.101-.414-1.676-.414s-1.151.138-1.676.414l-4.877 2.564c-.291.153-.521.036-.634-.045-.113-.082-.294-.268-.239-.588l.932-5.431c.2-1.168-.187-2.36-1.036-3.188l-3.946-3.846c-.233-.227-.195-.484-.152-.617s.164-.362.485-.409l5.454-.792c1.174-.171 2.188-.908 2.711-1.97l2.439-4.943c.145-.291.399-.334.539-.334s.395.043.539.334l2.438 4.941c.524 1.063 1.537 1.8 2.711 1.971l5.455.792c.321.047.441.276.484.409s.081.39-.151.616z" fill="#3a312a"/><path d="m125.461 84.024c1.247-1.215.559-3.333-1.164-3.583l-5.454-.793c-.684-.099-1.276-.529-1.582-1.149l-2.439-4.942c-.771-1.561-2.997-1.561-3.768 0l-2.439 4.942c-.306.62-.898 1.05-1.582 1.149l-5.454.793c-1.723.25-2.411 2.368-1.164 3.583l3.947 3.847c.495.483.721 1.178.604 1.86l-.932 5.432c-.294 1.716 1.507 3.025 3.048 2.215l4.878-2.565c.612-.322 1.343-.322 1.955 0l4.878 2.565c1.541.81 3.343-.499 3.048-2.215l-.932-5.432c-.117-.682.109-1.377.604-1.86z" fill="#f16c7a"/><path d="m126.508 85.098c.988-.964 1.337-2.378.911-3.691-.427-1.313-1.54-2.252-2.907-2.451l-5.454-.792c-.196-.028-.365-.151-.453-.329l-2.439-4.942c-.611-1.238-1.849-2.007-3.229-2.007s-2.618.769-3.229 2.007l-2.439 4.942c-.087.178-.257.301-.453.329l-5.454.792c-1.366.199-2.48 1.138-2.907 2.451-.426 1.313-.077 2.727.912 3.691l3.946 3.846c.142.138.206.337.173.532l-.932 5.432c-.233 1.36.315 2.71 1.432 3.521 1.117.812 2.57.917 3.793.274l4.877-2.564c.175-.091.385-.092.56 0l4.878 2.564c.532.279 1.106.417 1.679.417.744 0 1.482-.233 2.114-.692 1.117-.812 1.666-2.161 1.432-3.521l-.932-5.432c-.034-.195.031-.394.172-.532zm-6.041 1.699c-.848.827-1.235 2.019-1.035 3.187l.932 5.432c.055.32-.126.506-.239.588-.112.083-.346.197-.633.046l-4.878-2.564c-.524-.276-1.1-.414-1.675-.414-.576 0-1.151.138-1.676.414l-4.877 2.564c-.287.151-.52.037-.633-.046-.113-.082-.294-.268-.239-.588l.932-5.432c.2-1.168-.187-2.359-1.036-3.187l-3.946-3.847c-.233-.227-.196-.483-.152-.616.043-.133.163-.362.485-.409l5.454-.792c1.173-.171 2.187-.907 2.712-1.97l2.439-4.942c.144-.292.399-.335.539-.335s.395.043.539.334l2.439 4.943c.525 1.063 1.539 1.799 2.712 1.97l5.454.792c.322.047.442.276.485.409.044.133.081.389-.152.616z" fill="#3a312a"/><path d="m178.919 84.024c1.247-1.215.559-3.333-1.164-3.583l-5.454-.793c-.684-.099-1.276-.529-1.582-1.149l-2.439-4.942c-.771-1.561-2.997-1.561-3.768 0l-2.439 4.942c-.306.62-.898 1.05-1.582 1.149l-5.454.793c-1.723.25-2.411 2.368-1.164 3.583l3.947 3.847c.495.483.721 1.178.604 1.86l-.932 5.432c-.294 1.716 1.507 3.025 3.048 2.215l4.878-2.565c.612-.322 1.343-.322 1.955 0l4.878 2.565c1.541.81 3.343-.499 3.048-2.215l-.932-5.432c-.117-.682.109-1.377.604-1.86z" fill="#f16c7a"/><path d="m179.966 85.098c.989-.964 1.338-2.378.911-3.691s-1.541-2.252-2.907-2.451l-5.453-.792c-.196-.028-.365-.151-.453-.329l-2.439-4.942c-.61-1.238-1.848-2.007-3.229-2.007s-2.618.769-3.229 2.007l-2.44 4.943c-.087.177-.256.3-.452.328l-5.453.792c-1.366.199-2.481 1.138-2.907 2.451-.427 1.313-.078 2.728.911 3.691l3.947 3.846c.141.138.206.337.172.532l-.932 5.432c-.233 1.361.316 2.71 1.433 3.521 1.116.813 2.569.917 3.793.274l4.878-2.564c.174-.092.385-.092.559 0l4.879 2.565c.531.279 1.106.417 1.679.417.743 0 1.482-.233 2.113-.692 1.116-.811 1.666-2.161 1.433-3.521l-.932-5.433c-.033-.194.031-.393.173-.531zm-6.04 1.699c-.85.828-1.236 2.02-1.036 3.187l.932 5.432c.055.32-.126.506-.239.588-.111.082-.345.198-.633.046l-4.878-2.564c-.525-.276-1.101-.414-1.676-.414s-1.151.138-1.676.414l-4.877 2.564c-.29.154-.521.037-.634-.045s-.294-.268-.239-.588l.932-5.431c.201-1.168-.186-2.36-1.035-3.188l-3.947-3.847c-.232-.227-.195-.483-.152-.616.044-.133.164-.362.486-.409l5.453-.792c1.174-.171 2.188-.908 2.711-1.97l2.439-4.943c.145-.291.399-.334.539-.334s.394.043.539.334l2.438 4.941c.524 1.063 1.538 1.8 2.712 1.971l5.453.792c.322.047.442.276.486.409.043.133.08.389-.152.616z" fill="#3a312a"/><path d="m139.15 43.04c-3.57 0-7.08.29-10.5.86 20.71 3.38 38.14 16.64 47.3 34.76l2.02.3c1.37.19 2.48 1.13 2.91 2.45.42 1.31.07 2.72-.91 3.69l-.88.85c2.45 6.81 3.78 14.15 3.78 21.8 0 32.11-23.51 58.84-54.22 63.86 3.42.57 6.93.86 10.5.86 35.68 0 64.72-29.03 64.72-64.72 0-35.68-29.04-64.71-64.72-64.71z" fill="#b9c239"/></svg>